<?xml version="1.0" encoding="UTF-8" standalone="no"?>
<!-- Created with Inkscape (http://www.inkscape.org/) -->

<svg
   width="321.00293"
   height="98.572906"
   viewBox="0 0 84.932022 26.080748"
   version="1.1"
   id="svg1"
   xmlns="http://www.w3.org/2000/svg"
   xmlns:svg="http://www.w3.org/2000/svg">
  <defs
     id="defs1" />
  <g
     id="layer2"
     style="display:none"
     transform="translate(-376.05427,-106.313)">
    <path
       style="fill:none;stroke:#000000;stroke-width:0.79375;stroke-linejoin:round;stroke-opacity:1;paint-order:stroke fill markers"
       d="M 353.10844,24.999999 H 483.10842 V 140 H 353.10844 Z"
       id="path10" />
  </g>
  <g
     id="layer3"
     style="display:inline"
     transform="translate(-376.05427,-106.313)">
    <path
       style="font-size:41.7292px;font-family:Medodica;-inkscape-font-specification:'Medodica, Normal';letter-spacing:0.859896px;word-spacing:7.82422px;fill:#1e1e1e;stroke-width:2.54287;stroke-linecap:round;stroke-linejoin:round"
       d="m 378.66235,111.52915 v 2.60807 h 7.82422 v 7.82423 h -7.82422 v 2.60807 h 7.82422 v 5.21615 h 2.60808 v -18.25652 z m 7.82422,18.25652 h -7.82422 v 2.60808 h 7.82422 z m -7.82422,-7.82422 v -7.82423 h -2.60808 v 7.82423 z M 394.74253,106.313 v 2.60807 h 2.60808 V 106.313 Z m -2.60807,5.21615 v 2.60807 h 2.60807 v 10.4323 h -2.60807 v 2.60808 h 7.82422 v -2.60808 h -2.60807 v -13.04037 z m 16.45387,0 v 2.60807 h 5.21615 v -2.60807 z m 5.21615,2.60807 v 13.04038 h 2.60807 v -13.04038 z m -5.21615,0 h -5.21615 v 13.04038 h 2.60807 v -10.4323 h 2.60808 z m 12.72475,-2.60807 v 2.60807 h 7.82423 v 7.82423 h -7.82423 v 2.60807 h 7.82423 v 5.21615 h 2.60807 v -18.25652 z m 7.82423,18.25652 h -7.82423 v 2.60808 h 7.82423 z m -7.82423,-7.82422 v -7.82423 h -2.60807 v 7.82423 z m 15.61309,-10.4323 v 2.60807 h 7.82422 v -2.60807 z m 7.82422,2.60807 v 2.60808 h -7.82422 v -2.60808 h -2.60808 v 10.4323 h 2.60808 v -5.21615 h 10.4323 v -5.21615 z m -7.82422,10.4323 v 2.60808 h 10.4323 v -2.60808 z m 13.62781,-13.04037 v 15.64845 h 2.60808 v -10.4323 h 2.60807 v -2.60808 h -2.60807 v -2.60807 z m 5.21615,2.60807 h 5.21615 v -2.60807 h -5.21615 z"
       id="text39"
       aria-label="ginger" />
  </g>
</svg>
