<?xml version="1.0" encoding="utf-8"?>
<svg width="1080" height="1088" viewBox="0 0 1080 1088" fill="none" xmlns="http://www.w3.org/2000/svg">
  <defs>
    <clipPath id="clip_path_1">
      <rect width="1080" height="1088" />
    </clipPath>
  </defs>
  <g clip-path="url(#clip_path_1)" fill="#CCC4C4">
    <path d="M11.3965 106.04L2.87109 43.2861L15.1172 43.2861L20.8887 94.0283L21.709 94.0283L28.7988 43.2861L43.0664 43.2861L50.1562 94.0283L51.0059 94.0283L57.0117 43.2861L69.1113 43.2861L60.4688 106.04L42.9492 106.04L36.4746 57.3193L35.6543 57.3193L28.7988 106.04L11.3965 106.04ZM110.174 31.2744Q105.369 31.2744 103.377 29.4287Q101.414 27.5537 101.414 23.833Q101.414 19.9951 103.494 18.208Q105.604 16.3916 110.174 16.3916Q114.949 16.3916 117.059 18.2666Q119.168 20.1123 119.168 23.833Q119.168 27.5537 117.117 29.4287Q115.066 31.2744 110.174 31.2744ZM81.7266 106.04L81.7266 95.3466L103.787 95.3466L103.787 53.9502L81.8438 53.9502L81.8438 43.2861L117.117 43.2861L117.117 95.3466L137.889 95.3466L137.889 106.04L81.7266 106.04ZM189.732 107.476Q179.156 107.476 173.385 102.612Q167.643 97.749 167.643 86.1181L167.643 53.9502L150.709 53.9502L150.709 43.872L160.553 43.872Q162.486 43.872 164.156 43.3447Q165.826 42.788 167.027 41.1181Q168.229 39.4482 168.492 35.9619L169.312 23.0127L180.973 23.0127L180.973 43.2861L205.67 43.2861L205.67 53.9502L180.973 53.9502L180.973 84.2138Q180.973 91.1572 184.254 93.9404Q187.564 96.6943 193.307 96.6943Q196.09 96.6943 199.488 96.0205Q202.916 95.3466 205.201 94.1455L205.201 104.106Q202.682 105.454 198.521 106.45Q194.391 107.476 189.732 107.476ZM259.682 41.5869Q268.559 41.5869 273.539 47.2412Q278.52 52.8662 278.52 64.4091L278.52 106.04L265.189 106.04L265.189 67.3974Q265.189 60.1904 262.113 56.4111Q259.066 52.6318 253.441 52.6318Q248.754 52.6318 245.883 54.917Q243.012 57.2021 241.312 60.5713Q240.229 62.3584 239.818 64.6435Q239.408 66.9287 239.408 69.4482L239.408 106.04L226.078 106.04L226.078 16.04L239.408 16.04L239.408 55.3857Q242.748 49.0283 247.729 45.3076Q252.709 41.5869 259.682 41.5869ZM344.162 126.196Q330.48 121.04 322.248 113.042Q314.045 105.073 310.441 93.9111Q306.838 82.749 306.838 68.1298Q306.838 53.3642 310.617 42.2607Q314.396 31.1572 322.6 23.247Q330.832 15.3076 344.162 10.2685L348.117 21.1963Q337.307 24.917 331.008 31.5966Q324.709 38.247 322.014 47.5048Q319.318 56.7334 319.318 68.3642Q319.318 80.2295 322.072 89.3701Q324.826 98.4814 331.125 104.897Q337.453 111.313 348.117 115.386L344.162 126.196ZM390.352 130.884Q384.111 130.884 379.189 130.093Q374.268 129.331 370.84 127.749Q367.441 126.196 365.684 123.853Q363.955 121.509 363.955 118.403Q363.955 113.95 367.91 110.698Q371.895 107.476 380.156 105.571Q375.732 105.19 373.008 103.989Q370.312 102.788 369.053 100.884Q367.793 98.9502 367.793 96.5478Q367.793 92.7099 371.279 89.6045Q374.766 86.4697 382.09 84.5654Q375.117 82.5146 371.514 77.417Q367.91 72.3193 367.91 65.4931Q367.91 58.2861 371.455 53.3056Q375 48.3252 380.801 45.8056Q386.631 43.2861 393.486 43.2861L427.793 43.2861L427.793 53.9502L415.078 53.9502Q417.012 55.7666 417.949 58.6963Q418.916 61.6259 418.916 64.9951Q418.916 71.5869 415.547 76.333Q412.207 81.0791 406.377 83.6572Q400.547 86.2353 393.105 86.2353L391.084 86.2353Q389.033 86.2353 386.455 86.9091Q383.877 87.5537 382.002 88.8134Q380.156 90.0732 380.156 92.124Q380.156 93.7939 382.236 94.7021Q384.346 95.6103 388.447 95.6103L406.67 95.6103Q416.514 95.6103 421.787 98.8037Q427.09 101.968 427.09 109.878Q427.09 118.989 418.506 124.936Q409.922 130.884 392.988 130.884L390.352 130.884ZM393.369 77.7099Q398.027 77.7099 400.898 75.8642Q403.799 73.9892 405.117 71.0009Q406.436 68.0127 406.436 64.6435Q406.436 59.2529 403.125 55.5908Q399.844 51.9287 393.486 51.9287Q387.246 51.9287 383.936 55.6494Q380.654 59.3701 380.654 64.7607Q380.654 68.247 382.031 71.1767Q383.408 74.1064 386.221 75.9228Q389.033 77.7099 393.369 77.7099ZM394.805 121.157Q401.279 121.157 405.586 120.073Q409.922 118.989 412.002 116.938Q414.111 114.917 414.111 112.28Q414.111 109.145 411.357 107.769Q408.604 106.392 403.564 106.392L391.67 106.392Q385.312 106.392 381.182 108.853Q377.051 111.313 377.051 114.683Q377.051 117.202 379.014 118.638Q381.006 120.073 384.463 120.601Q387.949 121.157 392.168 121.157L394.805 121.157ZM470.174 31.2744Q465.369 31.2744 463.377 29.4287Q461.414 27.5537 461.414 23.833Q461.414 19.9951 463.494 18.208Q465.604 16.3916 470.174 16.3916Q474.949 16.3916 477.059 18.2666Q479.168 20.1123 479.168 23.833Q479.168 27.5537 477.117 29.4287Q475.066 31.2744 470.174 31.2744ZM441.727 106.04L441.727 95.3466L463.787 95.3466L463.787 53.9502L441.844 53.9502L441.844 43.2861L477.117 43.2861L477.117 95.3466L497.889 95.3466L497.889 106.04L441.727 106.04ZM514.078 106.04L514.078 43.2861L526.91 43.2861L526.91 56.2353Q530.045 49.5263 535.201 45.5713Q540.357 41.5869 547.564 41.5869Q556.441 41.5869 561.48 47.2998Q566.52 53.0127 566.52 64.4091L566.52 106.04L553.189 106.04L553.189 67.3974Q553.189 60.1904 550.113 56.4111Q547.066 52.6318 541.324 52.6318Q536.754 52.6318 533.883 54.917Q531.012 57.2021 529.312 60.5713Q528.229 62.4755 527.818 64.7021Q527.408 66.9287 527.408 69.331L527.408 106.04L514.078 106.04ZM606.352 130.884Q600.111 130.884 595.189 130.093Q590.268 129.331 586.84 127.749Q583.441 126.196 581.684 123.853Q579.955 121.509 579.955 118.403Q579.955 113.95 583.91 110.698Q587.895 107.476 596.156 105.571Q591.732 105.19 589.008 103.989Q586.312 102.788 585.053 100.884Q583.793 98.9502 583.793 96.5478Q583.793 92.7099 587.279 89.6045Q590.766 86.4697 598.09 84.5654Q591.117 82.5146 587.514 77.417Q583.91 72.3193 583.91 65.4931Q583.91 58.2861 587.455 53.3056Q591 48.3252 596.801 45.8056Q602.631 43.2861 609.486 43.2861L643.793 43.2861L643.793 53.9502L631.078 53.9502Q633.012 55.7666 633.949 58.6963Q634.916 61.6259 634.916 64.9951Q634.916 71.5869 631.547 76.333Q628.207 81.0791 622.377 83.6572Q616.547 86.2353 609.105 86.2353L607.084 86.2353Q605.033 86.2353 602.455 86.9091Q599.877 87.5537 598.002 88.8134Q596.156 90.0732 596.156 92.124Q596.156 93.7939 598.236 94.7021Q600.346 95.6103 604.447 95.6103L622.67 95.6103Q632.514 95.6103 637.787 98.8037Q643.09 101.968 643.09 109.878Q643.09 118.989 634.506 124.936Q625.922 130.884 608.988 130.884L606.352 130.884ZM609.369 77.7099Q614.027 77.7099 616.898 75.8642Q619.799 73.9892 621.117 71.0009Q622.436 68.0127 622.436 64.6435Q622.436 59.2529 619.125 55.5908Q615.844 51.9287 609.486 51.9287Q603.246 51.9287 599.936 55.6494Q596.654 59.3701 596.654 64.7607Q596.654 68.247 598.031 71.1767Q599.408 74.1064 602.221 75.9228Q605.033 77.7099 609.369 77.7099ZM610.805 121.157Q617.279 121.157 621.586 120.073Q625.922 118.989 628.002 116.938Q630.111 114.917 630.111 112.28Q630.111 109.145 627.357 107.769Q624.604 106.392 619.564 106.392L607.67 106.392Q601.312 106.392 597.182 108.853Q593.051 111.313 593.051 114.683Q593.051 117.202 595.014 118.638Q597.006 120.073 600.463 120.601Q603.949 121.157 608.168 121.157L610.805 121.157ZM688.928 107.71Q673.547 107.71 664.611 99.4482Q655.676 91.1572 655.676 75.3076L655.676 73.7548Q655.676 63.7939 659.455 56.6162Q663.234 49.4091 669.768 45.5127Q676.33 41.5869 684.592 41.5869Q697.307 41.5869 704.748 49.3505Q712.189 57.0849 712.189 72.3193L712.189 78.3252L669.123 78.3252Q669.475 84.5654 672.404 88.6963Q675.363 92.8271 680.344 94.8779Q685.324 96.9287 691.682 96.9287Q696.955 96.9287 701.584 95.7275Q706.213 94.5263 710.168 92.3584L710.168 102.788Q706.066 105.073 700.734 106.392Q695.402 107.71 688.928 107.71ZM684.592 51.3134Q678 51.3134 673.723 56.1767Q669.475 61.04 668.889 69.2138L699.357 69.2138Q698.889 60.3076 694.846 55.8252Q690.832 51.3134 684.592 51.3134ZM728.408 106.04L728.408 95.3466L744.844 95.3466L744.844 53.9502L728.76 53.9502L728.76 43.2861L757.91 43.2861L757.91 60.8056Q759.844 55.0341 762.539 50.9033Q765.234 46.7724 769.131 44.4873Q773.027 42.2021 778.564 42.2021Q780.469 42.2021 782.139 42.583Q783.838 42.9345 784.922 43.5205L784.922 56.4697Q783.369 55.8838 780.967 55.415Q778.564 54.917 776.045 54.917Q770.391 54.917 766.377 57.8759Q762.363 60.8056 760.312 65.4931Q758.291 70.1513 758.291 75.4541L758.291 95.3466L780.586 95.3466L780.586 106.04L728.408 106.04ZM803.895 115.386Q814.91 111.196 821.209 104.546Q827.508 97.8662 830.086 88.7548Q832.693 79.6435 832.693 68.3642Q832.693 56.9677 830.027 47.7392Q827.391 38.4814 821.15 31.7724Q814.91 25.0341 803.895 21.1963L807.967 10.2685Q821.414 15.3076 829.559 23.3642Q837.732 31.3916 841.453 42.4951Q845.174 53.5986 845.174 68.1298Q845.174 82.6318 841.57 93.8525Q837.967 105.073 829.793 113.042Q821.648 121.04 807.967 126.196L803.895 115.386ZM972.006 107.476Q966.967 107.476 964.33 105.337Q961.693 103.169 961.693 98.0127Q961.693 92.9736 964.33 90.9228Q966.967 88.872 972.006 88.872Q977.045 88.872 979.682 90.9228Q982.318 92.9736 982.318 98.0127Q982.318 103.169 979.682 105.337Q977.045 107.476 972.006 107.476ZM972.006 61.7431Q966.967 61.7431 964.33 59.6045Q961.693 57.4365 961.693 52.2802Q961.693 47.2412 964.33 45.1904Q966.967 43.1396 972.006 43.1396Q977.045 43.1396 979.682 45.1904Q982.318 47.2412 982.318 52.2802Q982.318 57.4365 979.682 59.6045Q977.045 61.7431 972.006 61.7431Z" />
    <path d="M13.7988 204.253L13.7988 192.593L21.8262 192.593Q25.8105 192.593 28.0664 191.333Q30.3516 190.073 31.3184 188.286Q32.2852 186.47 32.2852 184.683Q32.2852 181.548 30.4102 178.618Q28.5645 175.688 26.1035 172.524Q23.6426 169.331 21.7676 165.728Q19.9219 162.124 19.9219 157.788Q19.9219 153.247 22.2656 149.409Q24.6094 145.571 29.1504 143.286Q33.7207 141.001 40.3125 141.001L59.5312 141.001L59.5312 150.845L44.1504 150.845Q39.3457 150.845 36.3574 152.895Q33.3691 154.917 33.3691 159.37Q33.3691 162.476 35.2148 165.435Q37.0898 168.364 39.4922 171.44Q41.8945 174.487 43.7402 177.856Q45.5859 181.196 45.5859 185.151Q45.5859 190.073 41.4551 193.794Q37.3242 197.515 30.9668 198.481Q37.3242 199.448 41.4551 203.11Q45.5859 206.772 45.5859 211.694Q45.5859 215.649 43.7402 219.019Q41.8945 222.358 39.4922 225.376Q37.0898 228.364 35.2148 231.177Q33.3691 233.989 33.3691 237.124Q33.3691 241.431 36.2402 243.599Q39.1113 245.767 44.5312 245.767L59.5312 245.767L59.5312 255.61L40.3125 255.61Q33.4863 255.61 28.916 253.325Q24.3457 251.04 22.1191 247.202Q19.9219 243.364 19.9219 238.677Q19.9219 234.487 21.7676 230.942Q23.6426 227.397 26.1035 224.233Q28.5645 221.04 30.4102 218.11Q32.2852 215.151 32.2852 212.163Q32.2852 210.347 31.3184 208.56Q30.3516 206.772 28.0664 205.513Q25.8105 204.253 21.8262 204.253L13.7988 204.253Z" />
    <path d="M296.877 389.331L296.877 303.286L309.826 303.286L309.826 316.235Q312.961 309.644 318.234 305.63Q323.508 301.587 330.832 301.587Q337.805 301.587 342.844 305.454Q347.883 309.292 350.695 316.499Q353.508 323.677 353.508 333.872L353.508 335.073Q353.508 345.532 350.461 352.798Q347.414 360.034 342.111 363.872Q336.838 367.71 329.895 367.71Q323.156 367.71 318.293 364.429Q313.43 361.118 310.207 354.409L310.207 389.331L296.877 389.331ZM324.826 357.046Q331.916 357.046 335.871 351.538Q339.826 346.001 339.826 334.956L339.826 334.253Q339.826 323.091 335.812 317.642Q331.799 312.163 325.09 312.163Q320.637 312.163 317.092 314.624Q313.547 317.085 311.555 321.948Q309.592 326.811 309.592 334.253L309.592 334.956Q309.592 345.884 313.723 351.479Q317.883 357.046 324.826 357.046ZM368.408 366.04L368.408 355.347L384.844 355.347L384.844 313.95L368.76 313.95L368.76 303.286L397.91 303.286L397.91 320.806Q399.844 315.034 402.539 310.903Q405.234 306.772 409.131 304.487Q413.027 302.202 418.564 302.202Q420.469 302.202 422.139 302.583Q423.838 302.935 424.922 303.52L424.922 316.47Q423.369 315.884 420.967 315.415Q418.564 314.917 416.045 314.917Q410.391 314.917 406.377 317.876Q402.363 320.806 400.312 325.493Q398.291 330.151 398.291 335.454L398.291 355.347L420.586 355.347L420.586 366.04L368.408 366.04ZM459.363 367.71Q451.453 367.71 446.268 363.052Q441.111 358.364 441.111 350.308Q441.111 341.431 447.41 335.923Q453.709 330.386 466.57 328.599L479.754 326.694L479.754 325.61Q479.754 319.106 475.799 315.767Q471.844 312.397 464.988 312.397Q459.832 312.397 453.826 314.097Q447.85 315.767 442.547 319.604L442.547 308.091Q447.117 305.308 453.357 303.462Q459.598 301.587 466.805 301.587Q479.52 301.587 486.229 307.476Q492.967 313.364 492.967 324.409L492.967 366.04L480.105 366.04L480.105 354.028Q477 360.649 471.727 364.194Q466.453 367.71 459.363 367.71ZM464.754 357.749Q468.357 357.749 471.844 356.02Q475.33 354.292 477.527 350.923Q479.754 347.554 479.754 342.749L479.754 335.308L469.324 336.89Q461.531 338.091 457.664 340.669Q453.826 343.247 453.826 348.52Q453.826 352.974 457.078 355.376Q460.33 357.749 464.754 357.749ZM547.447 367.476Q537.105 367.476 529.723 363.579Q522.369 359.683 518.443 352.476Q514.547 345.269 514.547 335.454L514.547 333.872Q514.547 324.145 518.736 316.968Q522.955 309.761 530.514 305.806Q538.072 301.851 548.15 301.851Q553.307 301.851 557.877 302.935Q562.447 303.989 565.318 305.571L565.318 316.353Q562.066 314.448 557.994 313.54Q553.922 312.632 549.967 312.632Q539.654 312.632 533.941 318.228Q528.229 323.794 528.229 334.106L528.229 334.956Q528.229 345.532 534 351.128Q539.771 356.694 549.586 356.694Q554.156 356.694 558.287 355.552Q562.447 354.409 565.318 352.827L565.318 363.286Q562.447 365.073 557.877 366.274Q553.307 367.476 547.447 367.476ZM621.732 367.476Q611.156 367.476 605.385 362.612Q599.643 357.749 599.643 346.118L599.643 313.95L582.709 313.95L582.709 303.872L592.553 303.872Q594.486 303.872 596.156 303.345Q597.826 302.788 599.027 301.118Q600.229 299.448 600.492 295.962L601.312 283.013L612.973 283.013L612.973 303.286L637.67 303.286L637.67 313.95L612.973 313.95L612.973 344.214Q612.973 351.157 616.254 353.94Q619.564 356.694 625.307 356.694Q628.09 356.694 631.488 356.02Q634.916 355.347 637.201 354.145L637.201 364.106Q634.682 365.454 630.521 366.45Q626.391 367.476 621.732 367.476ZM686.174 291.274Q681.369 291.274 679.377 289.429Q677.414 287.554 677.414 283.833Q677.414 279.995 679.494 278.208Q681.604 276.392 686.174 276.392Q690.949 276.392 693.059 278.267Q695.168 280.112 695.168 283.833Q695.168 287.554 693.117 289.429Q691.066 291.274 686.174 291.274ZM657.727 366.04L657.727 355.347L679.787 355.347L679.787 313.95L657.844 313.95L657.844 303.286L693.117 303.286L693.117 355.347L713.889 355.347L713.889 366.04L657.727 366.04ZM763.447 367.476Q753.105 367.476 745.723 363.579Q738.369 359.683 734.443 352.476Q730.547 345.269 730.547 335.454L730.547 333.872Q730.547 324.145 734.736 316.968Q738.955 309.761 746.514 305.806Q754.072 301.851 764.15 301.851Q769.307 301.851 773.877 302.935Q778.447 303.989 781.318 305.571L781.318 316.353Q778.066 314.448 773.994 313.54Q769.922 312.632 765.967 312.632Q755.654 312.632 749.941 318.228Q744.229 323.794 744.229 334.106L744.229 334.956Q744.229 345.532 750 351.128Q755.771 356.694 765.586 356.694Q770.156 356.694 774.287 355.552Q778.447 354.409 781.318 352.827L781.318 363.286Q778.447 365.073 773.877 366.274Q769.307 367.476 763.447 367.476ZM832.928 367.71Q817.547 367.71 808.611 359.448Q799.676 351.157 799.676 335.308L799.676 333.755Q799.676 323.794 803.455 316.616Q807.234 309.409 813.768 305.513Q820.33 301.587 828.592 301.587Q841.307 301.587 848.748 309.351Q856.189 317.085 856.189 332.319L856.189 338.325L813.123 338.325Q813.475 344.565 816.404 348.696Q819.363 352.827 824.344 354.878Q829.324 356.929 835.682 356.929Q840.955 356.929 845.584 355.728Q850.213 354.526 854.168 352.358L854.168 362.788Q850.066 365.073 844.734 366.392Q839.402 367.71 832.928 367.71ZM828.592 311.313Q822 311.313 817.723 316.177Q813.475 321.04 812.889 329.214L843.357 329.214Q842.889 320.308 838.846 315.825Q834.832 311.313 828.592 311.313ZM920.162 386.196Q906.48 381.04 898.248 373.042Q890.045 365.073 886.441 353.911Q882.838 342.749 882.838 328.13Q882.838 313.364 886.617 302.261Q890.396 291.157 898.6 283.247Q906.832 275.308 920.162 270.269L924.117 281.196Q913.307 284.917 907.008 291.597Q900.709 298.247 898.014 307.505Q895.318 316.733 895.318 328.364Q895.318 340.229 898.072 349.37Q900.826 358.481 907.125 364.897Q913.453 371.313 924.117 375.386L920.162 386.196ZM947.895 375.386Q958.91 371.196 965.209 364.546Q971.508 357.866 974.086 348.755Q976.693 339.644 976.693 328.364Q976.693 316.968 974.027 307.739Q971.391 298.481 965.15 291.772Q958.91 285.034 947.895 281.196L951.967 270.269Q965.414 275.308 973.559 283.364Q981.732 291.392 985.453 302.495Q989.174 313.599 989.174 328.13Q989.174 342.632 985.57 353.853Q981.967 365.073 973.793 373.042Q965.648 381.04 951.967 386.196L947.895 375.386ZM1038.12 349.253L1056.25 349.253L1041.37 387.046L1031.88 387.046L1038.12 349.253ZM1045.21 321.743Q1040.17 321.743 1037.53 319.604Q1034.89 317.436 1034.89 312.28Q1034.89 307.241 1037.53 305.19Q1040.17 303.14 1045.21 303.14Q1050.25 303.14 1052.88 305.19Q1055.52 307.241 1055.52 312.28Q1055.52 317.436 1052.88 319.604Q1050.25 321.743 1045.21 321.743Z" />
    <path d="M294.592 496.04L294.592 485.347L314.045 485.347L314.045 443.95L295.09 443.95L295.09 433.286L314.045 433.286L314.045 423.56Q314.045 417.085 316.799 412.954Q319.553 408.794 324.475 406.831Q329.396 404.839 335.637 404.839Q340.441 404.839 344.338 405.63Q348.234 406.392 350.52 407.476L350.52 417.436Q348.586 416.353 345.158 415.767Q341.76 415.151 338.391 415.151Q333.234 415.151 330.275 417.319Q327.346 419.487 327.346 424.526L327.346 433.286L351.252 433.286L351.252 443.95L327.346 443.95L327.346 485.347L350.754 485.347L350.754 496.04L294.592 496.04ZM387.363 497.71Q379.453 497.71 374.268 493.052Q369.111 488.364 369.111 480.308Q369.111 471.431 375.41 465.923Q381.709 460.386 394.57 458.599L407.754 456.694L407.754 455.61Q407.754 449.106 403.799 445.767Q399.844 442.397 392.988 442.397Q387.832 442.397 381.826 444.097Q375.85 445.767 370.547 449.604L370.547 438.091Q375.117 435.308 381.357 433.462Q387.598 431.587 394.805 431.587Q407.52 431.587 414.229 437.476Q420.967 443.364 420.967 454.409L420.967 496.04L408.105 496.04L408.105 484.028Q405 490.649 399.727 494.194Q394.453 497.71 387.363 497.71ZM392.754 487.749Q396.357 487.749 399.844 486.02Q403.33 484.292 405.527 480.923Q407.754 477.554 407.754 472.749L407.754 465.308L397.324 466.89Q389.531 468.091 385.664 470.669Q381.826 473.247 381.826 478.52Q381.826 482.974 385.078 485.376Q388.33 487.749 392.754 487.749ZM470.174 421.274Q465.369 421.274 463.377 419.429Q461.414 417.554 461.414 413.833Q461.414 409.995 463.494 408.208Q465.604 406.392 470.174 406.392Q474.949 406.392 477.059 408.267Q479.168 410.112 479.168 413.833Q479.168 417.554 477.117 419.429Q475.066 421.274 470.174 421.274ZM441.727 496.04L441.727 485.347L463.787 485.347L463.787 443.95L441.844 443.95L441.844 433.286L477.117 433.286L477.117 485.347L497.889 485.347L497.889 496.04L441.727 496.04ZM512.525 496.04L512.525 485.347L534.469 485.347L534.469 416.733L512.643 416.733L512.643 406.04L547.799 406.04L547.799 485.347L568.688 485.347L568.688 496.04L512.525 496.04ZM632.162 516.196Q618.48 511.04 610.248 503.042Q602.045 495.073 598.441 483.911Q594.838 472.749 594.838 458.13Q594.838 443.364 598.617 432.261Q602.396 421.157 610.6 413.247Q618.832 405.308 632.162 400.269L636.117 411.196Q625.307 414.917 619.008 421.597Q612.709 428.247 610.014 437.505Q607.318 446.733 607.318 458.364Q607.318 470.229 610.072 479.37Q612.826 488.481 619.125 494.897Q625.453 501.313 636.117 505.386L632.162 516.196ZM659.895 505.386Q670.91 501.196 677.209 494.546Q683.508 487.866 686.086 478.755Q688.693 469.644 688.693 458.364Q688.693 446.968 686.027 437.739Q683.391 428.481 677.15 421.772Q670.91 415.034 659.895 411.196L663.967 400.269Q677.414 405.308 685.559 413.364Q693.732 421.392 697.453 432.495Q701.174 443.599 701.174 458.13Q701.174 472.632 697.57 483.853Q693.967 495.073 685.793 503.042Q677.648 511.04 663.967 516.196L659.895 505.386ZM750.117 479.253L768.252 479.253L753.369 517.046L743.877 517.046L750.117 479.253ZM757.207 451.743Q752.168 451.743 749.531 449.604Q746.895 447.436 746.895 442.28Q746.895 437.241 749.531 435.19Q752.168 433.14 757.207 433.14Q762.246 433.14 764.883 435.19Q767.52 437.241 767.52 442.28Q767.52 447.436 764.883 449.604Q762.246 451.743 757.207 451.743Z" />
    <path d="M324.123 627.71Q319.201 627.71 314.572 626.86Q309.973 626.04 305.93 624.487Q301.916 622.935 298.928 621.001L298.928 609.604Q302.648 612.241 306.955 613.999Q311.291 615.727 315.773 616.577Q320.285 617.397 324.475 617.397Q330.715 617.397 333.938 615.2Q337.189 612.974 337.189 608.872Q337.189 606.001 335.52 604.507Q333.85 603.013 330.598 602.163Q327.346 601.313 322.57 600.61Q315.129 599.409 309.533 597.622Q303.967 595.806 300.949 592.085Q297.961 588.364 297.961 581.626Q297.961 575.151 301.242 570.727Q304.553 566.274 310.383 563.931Q316.213 561.587 323.508 561.587Q331.564 561.587 337.863 563.227Q344.162 564.839 348.967 567.593L348.967 579.106Q344.045 575.649 337.307 573.686Q330.598 571.694 323.508 571.694Q317.033 571.694 313.898 573.921Q310.793 576.118 310.793 579.839Q310.793 582.827 312.58 584.468Q314.396 586.079 317.619 586.87Q320.871 587.632 325.207 588.481Q332.414 589.683 337.98 591.44Q343.547 593.169 346.799 596.772Q350.051 600.347 350.051 606.968Q350.051 613.091 347.15 617.778Q344.279 622.436 338.508 625.073Q332.766 627.71 324.123 627.71ZM396.006 627.71Q387.363 627.71 380.801 623.872Q374.268 620.034 370.605 612.856Q366.973 605.649 366.973 595.454L366.973 593.755Q366.973 583.677 370.605 576.499Q374.268 569.292 380.859 565.454Q387.48 561.587 396.006 561.587Q404.766 561.587 411.299 565.513Q417.832 569.409 421.436 576.616Q425.039 583.794 425.039 593.755L425.039 595.454Q425.039 605.649 421.318 612.856Q417.598 620.034 411.064 623.872Q404.531 627.71 396.006 627.71ZM396.006 617.046Q403.066 617.046 407.197 611.714Q411.357 606.352 411.357 595.073L411.357 594.253Q411.357 582.827 407.139 577.495Q402.949 572.163 396.006 572.163Q389.033 572.163 384.844 577.495Q380.654 582.827 380.654 594.253L380.654 595.073Q380.654 606.352 384.844 611.714Q389.033 617.046 396.006 617.046ZM440.525 626.04L440.525 615.347L462.469 615.347L462.469 546.733L440.643 546.733L440.643 536.04L475.799 536.04L475.799 615.347L496.688 615.347L496.688 626.04L440.525 626.04ZM510.475 563.286L524.508 563.286L540.24 615.347L555.592 563.286L569.508 563.286L549 626.04L530.895 626.04L510.475 563.286ZM616.928 627.71Q601.547 627.71 592.611 619.448Q583.676 611.157 583.676 595.308L583.676 593.755Q583.676 583.794 587.455 576.616Q591.234 569.409 597.768 565.513Q604.33 561.587 612.592 561.587Q625.307 561.587 632.748 569.351Q640.189 577.085 640.189 592.319L640.189 598.325L597.123 598.325Q597.475 604.565 600.404 608.696Q603.363 612.827 608.344 614.878Q613.324 616.929 619.682 616.929Q624.955 616.929 629.584 615.727Q634.213 614.526 638.168 612.358L638.168 622.788Q634.066 625.073 628.734 626.392Q623.402 627.71 616.928 627.71ZM612.592 571.313Q606 571.313 601.723 576.177Q597.475 581.04 596.889 589.214L627.357 589.214Q626.889 580.308 622.846 575.825Q618.832 571.313 612.592 571.313ZM704.162 646.196Q690.48 641.04 682.248 633.042Q674.045 625.073 670.441 613.911Q666.838 602.749 666.838 588.13Q666.838 573.364 670.617 562.261Q674.396 551.157 682.6 543.247Q690.832 535.308 704.162 530.268L708.117 541.196Q697.307 544.917 691.008 551.597Q684.709 558.247 682.014 567.505Q679.318 576.733 679.318 588.364Q679.318 600.229 682.072 609.37Q684.826 618.481 691.125 624.897Q697.453 631.313 708.117 635.386L704.162 646.196ZM731.895 635.386Q742.91 631.196 749.209 624.546Q755.508 617.866 758.086 608.755Q760.693 599.643 760.693 588.364Q760.693 576.968 758.027 567.739Q755.391 558.481 749.15 551.772Q742.91 545.034 731.895 541.196L735.967 530.268Q749.414 535.308 757.559 543.364Q765.732 551.392 769.453 562.495Q773.174 573.599 773.174 588.13Q773.174 602.632 769.57 613.852Q765.967 625.073 757.793 633.042Q749.648 641.04 735.967 646.196L731.895 635.386ZM822.117 609.253L840.252 609.253L825.369 647.046L815.877 647.046L822.117 609.253ZM829.207 581.743Q824.168 581.743 821.531 579.604Q818.895 577.436 818.895 572.28Q818.895 567.241 821.531 565.19Q824.168 563.14 829.207 563.14Q834.246 563.14 836.883 565.19Q839.52 567.241 839.52 572.28Q839.52 577.436 836.883 579.604Q834.246 581.743 829.207 581.743Z" />
    <path d="M324.123 757.71Q319.201 757.71 314.572 756.86Q309.973 756.04 305.93 754.487Q301.916 752.935 298.928 751.001L298.928 739.604Q302.648 742.241 306.955 743.999Q311.291 745.727 315.773 746.577Q320.285 747.397 324.475 747.397Q330.715 747.397 333.938 745.2Q337.189 742.974 337.189 738.872Q337.189 736.001 335.52 734.507Q333.85 733.013 330.598 732.163Q327.346 731.313 322.57 730.61Q315.129 729.409 309.533 727.622Q303.967 725.806 300.949 722.085Q297.961 718.364 297.961 711.626Q297.961 705.151 301.242 700.727Q304.553 696.274 310.383 693.931Q316.213 691.587 323.508 691.587Q331.564 691.587 337.863 693.227Q344.162 694.839 348.967 697.593L348.967 709.106Q344.045 705.649 337.307 703.686Q330.598 701.694 323.508 701.694Q317.033 701.694 313.898 703.921Q310.793 706.118 310.793 709.839Q310.793 712.827 312.58 714.468Q314.396 716.079 317.619 716.87Q320.871 717.632 325.207 718.481Q332.414 719.683 337.98 721.44Q343.547 723.169 346.799 726.772Q350.051 730.347 350.051 736.968Q350.051 743.091 347.15 747.778Q344.279 752.436 338.508 755.073Q332.766 757.71 324.123 757.71ZM421.934 693.286L421.934 756.04L409.189 756.04L409.189 743.325Q405.967 749.917 400.811 753.813Q395.654 757.71 388.447 757.71Q379.453 757.71 374.473 752.085Q369.492 746.431 369.492 734.917L369.492 693.286L382.793 693.286L382.793 732.163Q382.793 739.253 385.84 743.091Q388.916 746.929 394.688 746.929Q399.229 746.929 402.217 744.761Q405.234 742.593 406.934 739.37Q407.988 737.436 408.281 735.034Q408.604 732.632 408.604 730.229L408.604 693.286L421.934 693.286ZM475.447 757.476Q465.105 757.476 457.723 753.579Q450.369 749.683 446.443 742.476Q442.547 735.268 442.547 725.454L442.547 723.872Q442.547 714.145 446.736 706.968Q450.955 699.761 458.514 695.806Q466.072 691.851 476.15 691.851Q481.307 691.851 485.877 692.935Q490.447 693.989 493.318 695.571L493.318 706.352Q490.066 704.448 485.994 703.54Q481.922 702.632 477.967 702.632Q467.654 702.632 461.941 708.227Q456.229 713.794 456.229 724.106L456.229 724.956Q456.229 735.532 462 741.128Q467.771 746.694 477.586 746.694Q482.156 746.694 486.287 745.552Q490.447 744.409 493.318 742.827L493.318 753.286Q490.447 755.073 485.877 756.274Q481.307 757.476 475.447 757.476ZM547.447 757.476Q537.105 757.476 529.723 753.579Q522.369 749.683 518.443 742.476Q514.547 735.268 514.547 725.454L514.547 723.872Q514.547 714.145 518.736 706.968Q522.955 699.761 530.514 695.806Q538.072 691.851 548.15 691.851Q553.307 691.851 557.877 692.935Q562.447 693.989 565.318 695.571L565.318 706.352Q562.066 704.448 557.994 703.54Q553.922 702.632 549.967 702.632Q539.654 702.632 533.941 708.227Q528.229 713.794 528.229 724.106L528.229 724.956Q528.229 735.532 534 741.128Q539.771 746.694 549.586 746.694Q554.156 746.694 558.287 745.552Q562.447 744.409 565.318 742.827L565.318 753.286Q562.447 755.073 557.877 756.274Q553.307 757.476 547.447 757.476ZM616.928 757.71Q601.547 757.71 592.611 749.448Q583.676 741.157 583.676 725.308L583.676 723.755Q583.676 713.794 587.455 706.616Q591.234 699.409 597.768 695.513Q604.33 691.587 612.592 691.587Q625.307 691.587 632.748 699.351Q640.189 707.085 640.189 722.319L640.189 728.325L597.123 728.325Q597.475 734.565 600.404 738.696Q603.363 742.827 608.344 744.878Q613.324 746.929 619.682 746.929Q624.955 746.929 629.584 745.727Q634.213 744.526 638.168 742.358L638.168 752.788Q634.066 755.073 628.734 756.392Q623.402 757.71 616.928 757.71ZM612.592 701.313Q606 701.313 601.723 706.177Q597.475 711.04 596.889 719.214L627.357 719.214Q626.889 710.308 622.846 705.825Q618.832 701.313 612.592 701.313ZM688.928 757.71Q673.547 757.71 664.611 749.448Q655.676 741.157 655.676 725.308L655.676 723.755Q655.676 713.794 659.455 706.616Q663.234 699.409 669.768 695.513Q676.33 691.587 684.592 691.587Q697.307 691.587 704.748 699.351Q712.189 707.085 712.189 722.319L712.189 728.325L669.123 728.325Q669.475 734.565 672.404 738.696Q675.363 742.827 680.344 744.878Q685.324 746.929 691.682 746.929Q696.955 746.929 701.584 745.727Q706.213 744.526 710.168 742.358L710.168 752.788Q706.066 755.073 700.734 756.392Q695.402 757.71 688.928 757.71ZM684.592 701.313Q678 701.313 673.723 706.177Q669.475 711.04 668.889 719.214L699.357 719.214Q698.889 710.308 694.846 705.825Q690.832 701.313 684.592 701.313ZM749.414 757.71Q738.604 757.71 732.598 749.214Q726.592 740.688 726.592 725.073L726.592 723.872Q726.592 713.677 729.697 706.499Q732.832 699.292 738.223 695.454Q743.643 691.587 750.352 691.587Q757.441 691.587 762.041 695.132Q766.67 698.677 769.688 705.034L769.688 666.04L782.988 666.04L782.988 756.04L770.039 756.04L770.039 743.208Q767.051 749.8 761.807 753.755Q756.592 757.71 749.414 757.71ZM754.922 747.163Q761.631 747.163 765.996 741.655Q770.391 736.118 770.391 725.073L770.391 724.37Q770.391 713.325 766.318 707.817Q762.246 702.28 755.156 702.28Q748.213 702.28 744.229 707.817Q740.273 713.325 740.273 724.37L740.273 725.073Q740.273 736.235 744.229 741.714Q748.213 747.163 754.922 747.163ZM848.162 776.196Q834.48 771.04 826.248 763.042Q818.045 755.073 814.441 743.911Q810.838 732.749 810.838 718.13Q810.838 703.364 814.617 692.261Q818.396 681.157 826.6 673.247Q834.832 665.308 848.162 660.268L852.117 671.196Q841.307 674.917 835.008 681.597Q828.709 688.247 826.014 697.505Q823.318 706.733 823.318 718.364Q823.318 730.229 826.072 739.37Q828.826 748.481 835.125 754.897Q841.453 761.313 852.117 765.386L848.162 776.196ZM875.895 765.386Q886.91 761.196 893.209 754.546Q899.508 747.866 902.086 738.755Q904.693 729.643 904.693 718.364Q904.693 706.968 902.027 697.739Q899.391 688.481 893.15 681.772Q886.91 675.034 875.895 671.196L879.967 660.268Q893.414 665.308 901.559 673.364Q909.732 681.392 913.453 692.495Q917.174 703.599 917.174 718.13Q917.174 732.632 913.57 743.852Q909.967 755.073 901.793 763.042Q893.648 771.04 879.967 776.196L875.895 765.386ZM966.117 739.253L984.252 739.253L969.369 777.046L959.877 777.046L966.117 739.253ZM973.207 711.743Q968.168 711.743 965.531 709.604Q962.895 707.436 962.895 702.28Q962.895 697.241 965.531 695.19Q968.168 693.14 973.207 693.14Q978.246 693.14 980.883 695.19Q983.52 697.241 983.52 702.28Q983.52 707.436 980.883 709.604Q978.246 711.743 973.207 711.743Z" />
    <path d="M331.447 887.476Q321.105 887.476 313.723 883.579Q306.369 879.683 302.443 872.476Q298.547 865.268 298.547 855.454L298.547 853.872Q298.547 844.145 302.736 836.968Q306.955 829.761 314.514 825.806Q322.072 821.851 332.15 821.851Q337.307 821.851 341.877 822.935Q346.447 823.989 349.318 825.571L349.318 836.352Q346.066 834.448 341.994 833.54Q337.922 832.632 333.967 832.632Q323.654 832.632 317.941 838.227Q312.229 843.794 312.229 854.106L312.229 854.956Q312.229 865.532 318 871.128Q323.771 876.694 333.586 876.694Q338.156 876.694 342.287 875.552Q346.447 874.409 349.318 872.827L349.318 883.286Q346.447 885.073 341.877 886.274Q337.307 887.476 331.447 887.476ZM403.682 821.587Q412.559 821.587 417.539 827.241Q422.52 832.866 422.52 844.409L422.52 886.04L409.189 886.04L409.189 847.397Q409.189 840.19 406.113 836.411Q403.066 832.632 397.441 832.632Q392.754 832.632 389.883 834.917Q387.012 837.202 385.312 840.571Q384.229 842.358 383.818 844.643Q383.408 846.929 383.408 849.448L383.408 886.04L370.078 886.04L370.078 796.04L383.408 796.04L383.408 835.386Q386.748 829.028 391.729 825.308Q396.709 821.587 403.682 821.587ZM470.174 811.274Q465.369 811.274 463.377 809.429Q461.414 807.554 461.414 803.833Q461.414 799.995 463.494 798.208Q465.604 796.392 470.174 796.392Q474.949 796.392 477.059 798.267Q479.168 800.112 479.168 803.833Q479.168 807.554 477.117 809.429Q475.066 811.274 470.174 811.274ZM441.727 886.04L441.727 875.347L463.787 875.347L463.787 833.95L441.844 833.95L441.844 823.286L477.117 823.286L477.117 875.347L497.889 875.347L497.889 886.04L441.727 886.04ZM512.525 886.04L512.525 875.347L534.469 875.347L534.469 806.733L512.643 806.733L512.643 796.04L547.799 796.04L547.799 875.347L568.688 875.347L568.688 886.04L512.525 886.04ZM584.525 886.04L584.525 875.347L606.469 875.347L606.469 806.733L584.643 806.733L584.643 796.04L619.799 796.04L619.799 875.347L640.688 875.347L640.688 886.04L584.525 886.04ZM704.162 906.196Q690.48 901.04 682.248 893.042Q674.045 885.073 670.441 873.911Q666.838 862.749 666.838 848.13Q666.838 833.364 670.617 822.261Q674.396 811.157 682.6 803.247Q690.832 795.308 704.162 790.268L708.117 801.196Q697.307 804.917 691.008 811.597Q684.709 818.247 682.014 827.505Q679.318 836.733 679.318 848.364Q679.318 860.229 682.072 869.37Q684.826 878.481 691.125 884.897Q697.453 891.313 708.117 895.386L704.162 906.196ZM731.895 895.386Q742.91 891.196 749.209 884.546Q755.508 877.866 758.086 868.755Q760.693 859.643 760.693 848.364Q760.693 836.968 758.027 827.739Q755.391 818.481 749.15 811.772Q742.91 805.034 731.895 801.196L735.967 790.268Q749.414 795.308 757.559 803.364Q765.732 811.392 769.453 822.495Q773.174 833.599 773.174 848.13Q773.174 862.632 769.57 873.852Q765.967 885.073 757.793 893.042Q749.648 901.04 735.967 906.196L731.895 895.386ZM822.117 869.253L840.252 869.253L825.369 907.046L815.877 907.046L822.117 869.253ZM829.207 841.743Q824.168 841.743 821.531 839.604Q818.895 837.436 818.895 832.28Q818.895 827.241 821.531 825.19Q824.168 823.14 829.207 823.14Q834.246 823.14 836.883 825.19Q839.52 827.241 839.52 832.28Q839.52 837.436 836.883 839.604Q834.246 841.743 829.207 841.743Z" />
    <path d="M12.4805 1035.61L12.4805 1025.77L27.4805 1025.77Q32.8711 1025.77 35.8008 1023.6Q38.7598 1021.43 38.7598 1017.12Q38.7598 1013.99 36.8848 1011.18Q35.0391 1008.36 32.5781 1005.38Q30.1172 1002.36 28.2422 999.018Q26.3965 995.649 26.3965 991.694Q26.3965 986.772 30.5859 983.11Q34.8047 979.448 41.0449 978.481Q34.8047 977.515 30.5859 973.852Q26.3965 970.19 26.3965 965.151Q26.3965 961.196 28.2422 957.856Q30.1172 954.487 32.5781 951.44Q35.0391 948.364 36.8848 945.435Q38.7598 942.476 38.7598 939.37Q38.7598 934.917 35.8008 932.895Q32.8711 930.845 27.9492 930.845L12.4805 930.845L12.4805 921.001L31.6699 921.001Q38.4082 921.001 42.8906 923.286Q47.4023 925.571 49.7461 929.351Q52.0898 933.13 52.0898 937.788Q52.0898 942.124 50.2148 945.727Q48.3691 949.331 45.9082 952.524Q43.4473 955.688 41.5723 958.618Q39.7266 961.548 39.7266 964.683Q39.7266 966.352 40.7227 968.227Q41.748 970.073 44.0332 971.333Q46.3184 972.593 50.2734 972.593L58.2129 972.593L58.2129 984.253L50.2734 984.253Q46.3184 984.253 44.0332 985.513Q41.748 986.772 40.7227 988.56Q39.7266 990.347 39.7266 992.163Q39.7266 995.151 41.5723 998.11Q43.4473 1001.04 45.9082 1004.23Q48.3691 1007.4 50.2148 1010.94Q52.0898 1014.49 52.0898 1018.68Q52.0898 1023.36 49.8633 1027.2Q47.6367 1031.04 43.125 1033.33Q38.6426 1035.61 31.6699 1035.61L12.4805 1035.61Z" />
  </g>
</svg>