<?xml version="1.0" encoding="utf-8"?>
<svg width="495.115" height="502.716" viewBox="0 0 495.115 502.716" fill="none" xmlns="http://www.w3.org/2000/svg">
  <g transform="matrix(0.682 0.731 -0.731 0.682 201.853 0)">
    <path d="M45.7997 0C45.7997 0 0 39.337 -3.8147e-06 93.8449C-3.8147e-06 148.353 45.7997 187.69 45.7997 187.69" fill="none" stroke-width="12" stroke="#1E1E1E" stroke-linecap="round" stroke-linejoin="round" transform="matrix(1 0 -0 1 52.534 80.362)" />
    <path d="M0 0C0 0 45.8004 39.3369 45.8004 93.8448C45.8004 148.353 0 187.69 0 187.69" fill="none" stroke-width="12" stroke="#1E1E1E" stroke-linecap="round" stroke-linejoin="round" transform="matrix(1 0 -0 1 331.673 80.362)" />
    <path d="M0 52.5531L37.538 9.53674e-07L75.076 52.5531" fill="none" stroke-width="12" stroke="#1E1E1E" stroke-linecap="round" stroke-linejoin="round" transform="matrix(1 0 -0 1 118.513 7.945)" />
    <path d="M0 52.5531L37.5378 9.53674e-07L75.0757 52.5531" fill="none" stroke-width="12" stroke="#1E1E1E" stroke-linecap="round" stroke-linejoin="round" transform="matrix(1 0 -0 1 236.412 7.945)" />
    <path d="M0 0L82.444 0" fill="none" stroke-width="12" stroke="#1E1E1E" stroke-linecap="round" stroke-linejoin="round" transform="matrix(1 0 -0 1 7.945 165.431)" />
    <path d="M0 0L82.444 0" fill="none" stroke-width="12" stroke="#1E1E1E" stroke-linecap="round" stroke-linejoin="round" transform="matrix(1 0 -0 1 7.946 197.751)" />
    <path d="M0 17.6759C3.98425 10.5619 7.96812 3.448 13.4329 1.97495C18.8974 0.501892 25.8424 4.66983 32.787 8.83797C39.7321 13.0061 46.6767 17.174 52.1415 15.7009C57.606 14.2279 61.5902 7.11397 65.5744 0" fill="none" stroke-width="12" stroke="#1E1E1E" stroke-linecap="round" stroke-linejoin="round" transform="matrix(1 0 -0 1 118.577 127.809)" />
    <path d="M34.4527 17.2263C34.4527 26.7401 26.7402 34.4525 17.2263 34.4525C7.71252 34.4525 0 26.7401 0 17.2263C0 7.71248 7.71252 0 17.2263 0C26.7402 0 34.4527 7.71248 34.4527 17.2263C34.4527 17.2263 34.4527 17.2263 34.4527 17.2263Z" fill="#1E1E1E" transform="matrix(1 0 -0 1 255.149 118.441)" />
    <path d="M0 0C0 7.938 0 15.876 5.13408 19.8449C10.2678 23.8139 20.5356 23.8139 25.6697 17.8603C30.8034 11.9067 30.8034 0 30.8034 0C30.8034 0 30.8034 11.907 35.9375 17.8605C41.0715 23.814 51.3393 23.814 56.473 19.845C61.6071 15.876 61.6071 7.93802 61.6071 0" fill="none" stroke-width="12" stroke="#1E1E1E" stroke-linecap="round" stroke-linejoin="round" transform="matrix(1 0 -0 1 184.453 174.436)" />
    <path d="M0 0L82.4442 0" fill="none" stroke-width="12" stroke="#1E1E1E" stroke-linecap="round" stroke-linejoin="round" transform="matrix(1 0 -0 1 339.612 165.431)" />
    <path d="M0 0L82.4442 0" fill="none" stroke-width="12" stroke="#1E1E1E" stroke-linecap="round" stroke-linejoin="round" transform="matrix(1 0 -0 1 339.612 197.751)" />
  </g>
</svg>